HIERARCHY
ROOT Hips
{
 OFFSET 0.000000 0.000000 0.000000
 CHANNELS 6 Xposition Yposition Zposition Yrotation Xrotation Zrotation
 JOINT Chest
 {
  OFFSET 0.000000 11.395451 -0.039534
  CHANNELS 3 Yrotation Xrotation Zrotation
  JOINT Chest2
  {
   OFFSET 0.000000 9.398669 0.071813
   CHANNELS 3 Yrotation Xrotation Zrotation
   JOINT Chest3
   {
    OFFSET 0.000000 8.489801 0.000000
    CHANNELS 3 Yrotation Xrotation Zrotation
    JOINT Chest4
    {
     OFFSET 0.000000 8.489801 0.000000
     CHANNELS 3 Yrotation Xrotation Zrotation
     JOINT Neck
     {
      OFFSET 0.000000 12.404889 0.000000
      CHANNELS 3 Yrotation Xrotation Zrotation
      JOINT Head
      {
       OFFSET 0.000000 8.903270 0.092239
       CHANNELS 3 Yrotation Xrotation Zrotation
       End Site
       {
        OFFSET 0.000000 17.592497 0.007158
       }
      }
     }
     JOINT RightCollar
     {
      OFFSET -3.196775 6.966722 0.000000
      CHANNELS 3 Yrotation Xrotation Zrotation
      JOINT RightShoulder
      {
       OFFSET -15.955896 0.000000 0.000000
       CHANNELS 3 Yrotation Xrotation Zrotation
       JOINT RightElbow
       {
        OFFSET -24.792472 0.000000 0.000000
        CHANNELS 3 Yrotation Xrotation Zrotation
        JOINT RightWrist
        {
         OFFSET -20.900115 0.000000 0.025002
         CHANNELS 3 Yrotation Xrotation Zrotation
         End Site
         {
          OFFSET -16.056692 0.000000 0.000000
         }
        }
       }
      }
     }
     JOINT LeftCollar
     {
      OFFSET 3.196775 6.966722 0.000000
      CHANNELS 3 Yrotation Xrotation Zrotation
      JOINT LeftShoulder
      {
       OFFSET 15.955896 0.000000 0.000000
       CHANNELS 3 Yrotation Xrotation Zrotation
       JOINT LeftElbow
       {
        OFFSET 24.792472 0.000000 0.000000
        CHANNELS 3 Yrotation Xrotation Zrotation
        JOINT LeftWrist
        {
         OFFSET 20.900115 0.000000 0.025002
         CHANNELS 3 Yrotation Xrotation Zrotation
         End Site
         {
          OFFSET 16.056692 0.000000 0.000000
         }
        }
       }
      }
     }
    }
   }
  }
 }
 JOINT RightHip
 {
  OFFSET -9.568995 0.193718 0.019767
  CHANNELS 3 Yrotation Xrotation Zrotation
  JOINT RightKnee
  {
   OFFSET 0.000000 -56.649296 0.015402
   CHANNELS 3 Yrotation Xrotation Zrotation
   JOINT RightAnkle
   {
    OFFSET 0.000000 -41.365147 0.021264
    CHANNELS 3 Yrotation Xrotation Zrotation
    JOINT RightToe
    {
     OFFSET 0.000000 -7.465940 17.672538
     CHANNELS 3 Yrotation Xrotation Zrotation
     End Site
     {
      OFFSET 0.000000 -1.736315 7.837145
     }
    }
   }
  }
 }
 JOINT LeftHip
 {
  OFFSET 9.568995 0.193718 0.019767
  CHANNELS 3 Yrotation Xrotation Zrotation
  JOINT LeftKnee
  {
   OFFSET 0.000000 -56.649296 0.015402
   CHANNELS 3 Yrotation Xrotation Zrotation
   JOINT LeftAnkle
   {
    OFFSET 0.000000 -41.365147 0.021264
    CHANNELS 3 Yrotation Xrotation Zrotation
    JOINT LeftToe
    {
     OFFSET 0.000000 -7.465940 17.672538
     CHANNELS 3 Yrotation Xrotation Zrotation
     End Site
     {
      OFFSET 0.000000 -1.736315 7.837145
     }
    }
   }
  }
 }
}
MOTION
Frames: 5
Frame Time: 0.016667
-31.700741 106.570865 163.593250 -148.657296 -8.881208 -1.016624 0.084450 5.638851 1.043122 0.024798 2.506341 0.462005 0.024798 2.506341 0.462005 0.016699 1.879776 0.346346 2.506970 14.567673 -0.927488 5.066486 -9.048002 -2.708234 -0.308128 8.016668 8.511090 11.234496 -11.753254 74.933118 0.413248 -3.681205 -2.493164 -1.845336 0.546223 2.644733 -4.153676 8.978872 -7.011805 -0.499786 -14.912071 -75.825567 -5.127617 5.044726 -5.017125 4.089086 -2.892867 -1.753070 3.472031 10.537436 1.125843 -0.616711 4.045025 -0.108015 3.665631 -6.343371 0.468653 0.000000 -0.000000 0.000000 3.373955 11.254560 0.991546 -1.073205 6.829875 0.115668 4.558071 -10.574356 -0.294145 0.000000 0.000000 0.000000
-31.699642 106.556721 163.568948 -148.649105 -8.791163 -0.956088 0.051583 5.603636 1.008971 0.010701 2.490612 0.447256 0.010700 2.490613 0.447257 0.006200 1.867969 0.335346 2.516194 14.563305 -0.924809 5.082972 -9.055813 -2.706970 -0.298341 7.951067 8.502094 11.212908 -11.743919 75.054727 0.393685 -3.697201 -2.537600 -1.854860 0.545453 2.581195 -4.103574 8.941408 -7.007276 -0.560319 -14.808593 -75.801589 -5.142767 5.000768 -4.996188 4.039470 -2.886191 -1.778745 3.475599 10.474996 1.101007 -0.659286 4.035579 -0.186688 3.667916 -6.403155 0.512655 0.000000 -0.000000 -0.000000 3.372124 11.160635 0.946629 -1.141550 6.862509 0.033330 4.580241 -10.583835 -0.238693 0.000000 0.000000 0.000000
-31.698542 106.542578 163.544645 -148.640820 -8.701126 -0.895554 0.018727 5.568375 0.974883 -0.003397 2.474868 0.432530 -0.003397 2.474869 0.432530 -0.004300 1.856150 0.324361 2.525418 14.558937 -0.922128 5.099458 -9.063621 -2.705703 -0.288544 7.885457 8.493150 11.191221 -11.734463 75.176325 0.374211 -3.713221 -2.582066 -1.864295 0.544671 2.517644 -4.053479 8.903938 -7.002752 -0.620777 -14.705086 -75.777779 -5.157904 4.956796 -4.975261 3.989831 -2.879532 -1.804389 3.479226 10.412572 1.076149 -0.701873 4.026083 -0.265340 3.670127 -6.462934 0.556673 0.000000 -0.000000 0.000000 3.370407 11.066723 0.901702 -1.209947 6.895056 -0.049047 4.602423 -10.593323 -0.183252 0.000000 0.000000 0.000000
-31.698298 106.532178 163.519364 -148.634335 -8.619521 -0.845961 -0.012064 5.536643 0.946283 -0.016657 2.460702 0.420209 -0.016657 2.460702 0.420209 -0.014184 1.845516 0.315175 2.532379 14.552539 -0.917690 5.111111 -9.075396 -2.700373 -0.278600 7.824345 8.484389 11.173237 -11.726893 75.289132 0.362137 -3.726407 -2.621004 -1.872152 0.543062 2.457789 -4.006197 8.867555 -7.001156 -0.674501 -14.607938 -75.753870 -5.171409 4.920432 -4.957345 3.947849 -2.867444 -1.830829 3.487638 10.357075 1.059940 -0.739211 4.016985 -0.334938 3.668024 -6.521063 0.596939 0.000000 0.000000 0.000000 3.372622 10.984674 0.870578 -1.272017 6.921642 -0.121441 4.618543 -10.602779 -0.135561 0.000000 0.000000 0.000000
-31.699578 106.528060 163.492421 -148.629941 -8.550416 -0.812665 -0.040865 5.509908 0.925863 -0.029145 2.448763 0.411491 -0.029145 2.448764 0.411491 -0.023505 1.836554 0.308688 2.536071 14.543035 -0.910531 5.115719 -9.093232 -2.688839 -0.268394 7.768606 8.475613 11.159730 -11.720622 75.388665 0.362049 -3.734580 -2.651282 -1.876875 0.539707 2.401828 -3.962123 8.831985 -7.004529 -0.717689 -14.518869 -75.729432 -5.181823 4.896416 -4.943911 3.920327 -2.843663 -1.860709 3.505738 10.312129 1.057465 -0.769870 4.008304 -0.391674 3.657805 -6.578501 0.632215 -0.000000 -0.000000 0.000000 3.380962 10.920642 0.861270 -1.324519 6.938798 -0.179269 4.623537 -10.611896 -0.099224 0.000000 0.000000 0.000000
